<svg xmlns="http://www.w3.org/2000/svg" width="144" height="24" viewBox="0 0 144 24">
  <g id="logo" transform="translate(-139 -83)">
    <text id="lunar_Sphere" data-name="lunar Sphere" transform="translate(174 102)" fill="#272727" font-size="20" font-family="ProductSans-Regular, Product Sans"><tspan x="0" y="0">lunar</tspan><tspan y="0" fill="#707070"> </tspan><tspan y="0" fill="#0085b7">Sphere</tspan></text>
    <g id="cloud-moon-rain" transform="translate(137.001 83.02)">
      <path id="Path_4" data-name="Path 4" d="M8.4,13.819a.985.985,0,0,0-.985.985v.985a.985.985,0,0,0,1.97,0V14.8A.985.985,0,0,0,8.4,13.819Zm0,4.925a.985.985,0,0,0-.985.985v.985a.985.985,0,0,0,1.97,0v-.985A.985.985,0,0,0,8.4,18.744Zm13-11.751a.985.985,0,0,0-.926-.256,2.921,2.921,0,0,1-3.6-2.876,3.083,3.083,0,0,1,.079-.65A1.011,1.011,0,0,0,15.79,2a4.856,4.856,0,0,0-3.772,4.147,6.146,6.146,0,0,0-1.645-.207,5.91,5.91,0,0,0-5.851,5.053,3.447,3.447,0,0,0-.453,6.481,1.123,1.123,0,0,0,.394.079.985.985,0,0,0,.394-1.891,1.458,1.458,0,0,1-.886-1.349,1.477,1.477,0,0,1,1.477-1.477.985.985,0,0,0,.985-.985,3.94,3.94,0,0,1,3.94-3.94,3.945,3.945,0,0,1,3.684,2.62.985.985,0,0,0,.768.66,2.285,2.285,0,0,1,.965,4.216.989.989,0,1,0,1.083,1.655,4.255,4.255,0,0,0,1.871-3.566,4.166,4.166,0,0,0-.483-1.97A4.866,4.866,0,0,0,21.7,7.91a.985.985,0,0,0-.3-.916ZM16.883,9.771a2.679,2.679,0,0,1-.414,0,4.531,4.531,0,0,0-.68-.345A5.969,5.969,0,0,0,14,7.181V6.816A2.955,2.955,0,0,1,15.031,4.57,4.925,4.925,0,0,0,19.2,8.737a2.955,2.955,0,0,1-2.315,1.034Zm-4.541,3.063a.985.985,0,0,0-.985.985V14.8a.985.985,0,0,0,1.97,0v-.985A.985.985,0,0,0,12.342,12.834Zm0,4.925a.985.985,0,0,0-.985.985v.985a.985.985,0,1,0,1.97,0v-.985A.985.985,0,0,0,12.342,17.759Z" transform="translate(0 0)" fill="#0085b7"/>
    </g>
  </g>
</svg>
